HIERARCHY
ROOT Hips
{
	OFFSET -0.001795 -0.223333 0.028219
	CHANNELS 6 Xposition Yposition Zposition Zrotation Yrotation Xrotation 
	JOINT LeftUpLeg
	{
		OFFSET 0.069520 -0.091406 -0.006815
		CHANNELS 3 Zrotation Yrotation Xrotation
		JOINT LeftLeg
		{
			OFFSET 0.034277 -0.375199 -0.004496
			CHANNELS 3 Zrotation Yrotation Xrotation
			JOINT LeftFoot
			{
				OFFSET -0.013596 -0.397961 -0.043693
				CHANNELS 3 Zrotation Yrotation Xrotation
				JOINT LeftToe
				{
					OFFSET 0.026358 -0.055791 0.119288
					CHANNELS 3 Zrotation Yrotation Xrotation
					End Site
					{
						OFFSET 0.000000 0.000000 0.000000
					}
				}
			}
		}
	}
	JOINT RightUpLeg
	{
		OFFSET -0.067670 -0.090522 -0.004320
		CHANNELS 3 Zrotation Yrotation Xrotation
		JOINT RightLeg
		{
			OFFSET -0.038290 -0.382569 -0.008850
			CHANNELS 3 Zrotation Yrotation Xrotation
			JOINT RightFoot
			{
				OFFSET 0.015774 -0.398415 -0.042312
				CHANNELS 3 Zrotation Yrotation Xrotation
				JOINT RightToe
				{
					OFFSET -0.025372 -0.048144 0.123348
					CHANNELS 3 Zrotation Yrotation Xrotation
					End Site
					{
						OFFSET 0.000000 0.000000 0.000000
					}
				}
			}
		}
	}
	JOINT Spine
	{
		OFFSET -0.002533 0.108963 -0.026696
		CHANNELS 3 Zrotation Yrotation Xrotation
		JOINT Spine1
		{
			OFFSET 0.005487 0.135180 0.001092
			CHANNELS 3 Zrotation Yrotation Xrotation
			JOINT Spine2
			{
				OFFSET 0.001457 0.052922 0.025425
				CHANNELS 3 Zrotation Yrotation Xrotation
				JOINT Neck
				{
					OFFSET -0.002778 0.213870 -0.042857
					CHANNELS 3 Zrotation Yrotation Xrotation
					JOINT Head
					{
						OFFSET 0.005152 0.064970 0.051349
						CHANNELS 3 Zrotation Yrotation Xrotation
						End Site
						{
							OFFSET 0.000000 0.000000 0.000000
						}
					}
				}
				JOINT LeftShoulder
				{
					OFFSET 0.078845 0.121749 -0.034090
					CHANNELS 3 Zrotation Yrotation Xrotation
					JOINT LeftArm
					{
						OFFSET 0.090977 0.030469 -0.008868
						CHANNELS 3 Zrotation Yrotation Xrotation
						JOINT LeftForeArm
						{
							OFFSET 0.259612 -0.012772 -0.027456
							CHANNELS 3 Zrotation Yrotation Xrotation
							JOINT LeftHand
							{
								OFFSET 0.249234 0.008986 -0.001171
								CHANNELS 3 Zrotation Yrotation Xrotation
								End Site
								{
									OFFSET 0.000000 0.000000 0.000000
								}
							}
						}
					}
				}
				JOINT RightShoulder
				{
					OFFSET -0.081759 0.118833 -0.038615
					CHANNELS 3 Zrotation Yrotation Xrotation
					JOINT RightArm
					{
						OFFSET -0.096012 0.032551 -0.009143
						CHANNELS 3 Zrotation Yrotation Xrotation
						JOINT RightForeArm
						{
							OFFSET -0.253742 -0.013329 -0.021401
							CHANNELS 3 Zrotation Yrotation Xrotation
							JOINT RightHand
							{
								OFFSET -0.255298 0.007772 -0.005559
								CHANNELS 3 Zrotation Yrotation Xrotation
								End Site
								{
									OFFSET 0.000000 0.000000 0.000000
								}
							}
						}
					}
				}
			}
		}
	}
}
MOTION
Frames: 8
Frame Time: 0.050000
0.000000 0.907892 0.000000 -0.250669 -13.974815 5.606094 10.416276 1.048275 -26.559268 -7.782347 1.930040 13.089252 8.753671 17.123176 13.155382 0.000000 0.000000 0.000000 -7.100813 0.465747 2.318233 3.387463 0.167661 13.343796 -3.902618 -5.853885 -6.265754 0.000000 0.000000 0.000000 2.558451 -0.796725 18.768260 -5.125585 1.608483 -25.130625 0.782034 12.085102 28.252991 10.193136 -2.788387 -31.275152 0.000000 0.000000 0.000000 -15.570210 -8.265080 2.705835 -39.300727 -9.846534 -3.474891 -16.749027 -31.379411 5.932676 0.000000 0.000000 0.000000 26.049014 -0.447864 -0.631183 47.325667 18.038615 -0.466839 12.483305 37.099295 6.280814 0.000000 0.000000 0.000000 
0.013727 0.909489 0.026994 -1.237889 -14.545651 5.463241 9.972539 0.993427 -26.663341 -7.807978 2.214375 15.986101 8.327961 16.428946 12.746420 0.000000 0.000000 0.000000 -7.622336 0.540193 1.293866 4.183011 0.274826 18.175849 -3.065762 -5.118404 -3.878661 0.000000 0.000000 0.000000 2.889683 -0.858956 19.738378 -5.429013 1.670356 -23.908449 0.274233 8.708454 26.563547 9.534466 -3.337271 -28.976869 0.000000 0.000000 0.000000 -15.809186 -8.656110 3.685797 -38.488079 -11.466324 -3.065689 -11.739331 -32.363579 4.882542 0.000000 0.000000 0.000000 25.909245 -0.184698 -1.838785 47.856048 14.732119 -1.192097 14.836983 36.818927 6.558068 0.000000 0.000000 0.000000 
0.026858 0.912445 0.053683 -0.932364 -16.104910 4.191986 9.623432 0.910763 -24.702390 -9.385150 3.160229 18.999580 9.247252 17.913901 10.791166 0.000000 0.000000 0.000000 -10.691899 0.849799 -1.588510 7.855615 -0.184475 25.890410 -4.028483 -8.908677 -1.442664 0.000000 0.000000 0.000000 1.202941 -0.456149 20.294549 -3.903219 1.277060 -24.109239 -0.449849 6.838352 28.942172 7.831471 -2.843243 -29.758656 0.000000 0.000000 0.000000 -16.312504 -10.645958 5.465973 -36.371058 -15.011114 -2.387181 -8.894802 -34.226902 4.449560 0.000000 0.000000 0.000000 25.314721 1.839753 -1.416820 47.810154 13.203392 -1.776402 14.843334 36.103212 6.151964 0.000000 0.000000 0.000000 
0.038678 0.917187 0.079084 -1.414730 -17.288131 3.951160 9.601284 0.852635 -22.507059 -9.850468 3.443310 19.091068 9.598074 18.571529 9.500949 0.000000 0.000000 0.000000 -11.133641 0.911682 -5.347540 8.868882 -0.107129 30.939051 -5.927861 -14.455908 1.396987 0.000000 0.000000 0.000000 1.408870 -0.427501 21.584052 -4.703181 1.458911 -23.891203 -0.587242 4.420647 27.825176 6.469734 -2.677423 -28.794561 0.000000 0.000000 0.000000 -14.634163 -10.997242 6.041915 -34.746814 -17.178140 -1.778324 -7.273078 -39.433939 4.847302 0.000000 0.000000 0.000000 25.323381 0.779836 -3.194594 48.242992 10.099313 -2.554147 18.619152 34.334901 6.606526 0.000000 0.000000 0.000000 
0.049215 0.919586 0.103391 -1.780655 -18.409278 3.437375 8.722353 0.559527 -19.461478 -9.212885 3.282611 18.673007 10.293663 19.924793 7.949401 0.000000 0.000000 0.000000 -11.703830 0.985183 -8.563446 11.062126 -0.587885 32.901465 -8.269404 -19.779305 2.666064 0.000000 0.000000 0.000000 1.214842 -0.302665 22.900505 -3.548438 1.174479 -24.923435 -1.751264 2.576980 28.605989 5.437148 -2.603939 -28.456572 0.000000 0.000000 0.000000 -15.218902 -12.246508 7.329995 -29.960887 -20.003185 -1.383409 -3.607291 -44.599885 4.197750 0.000000 0.000000 0.000000 24.602824 1.751763 -3.346409 47.722611 8.748627 -2.918085 19.158809 33.441242 6.315604 0.000000 0.000000 0.000000 
0.057977 0.922918 0.126501 -2.125260 -19.811105 2.681227 8.402518 0.428836 -16.295812 -9.322253 3.320947 17.758814 10.618559 20.783135 6.578140 0.000000 0.000000 0.000000 -11.518389 1.061906 -11.495698 11.860491 -0.636645 33.499154 -9.232041 -21.889755 3.239102 0.000000 0.000000 0.000000 0.927098 -0.080047 25.057037 -3.093859 1.062383 -25.607182 -2.273611 1.738572 28.506546 4.988574 -2.506394 -29.234723 0.000000 0.000000 0.000000 -14.382190 -12.797022 7.705721 -26.803344 -22.863818 -0.900674 -0.253246 -49.140772 3.279373 0.000000 0.000000 0.000000 25.026491 1.923303 -3.834921 46.917582 7.272117 -3.246035 20.044593 34.219680 6.575517 0.000000 0.000000 0.000000 
0.064332 0.925085 0.148669 -2.626462 -19.656322 2.601095 8.017763 0.265230 -13.686268 -8.702291 2.923629 16.325568 10.430038 20.952302 4.521288 0.000000 0.000000 0.000000 -10.936852 1.145335 -14.021624 12.885543 -1.005678 33.157482 -8.943108 -21.413075 2.702418 0.000000 0.000000 0.000000 1.089580 -0.112151 25.560742 -2.839328 1.009626 -25.817022 -2.828667 0.551149 28.335287 4.354878 -2.405425 -28.639103 0.000000 0.000000 0.000000 -14.178121 -13.468013 8.194763 -23.458776 -25.231711 -0.679641 6.084019 -51.297211 0.464566 0.000000 0.000000 0.000000 24.814237 1.999094 -4.126530 47.224741 6.518497 -3.447925 20.841107 33.577388 6.553816 0.000000 0.000000 0.000000 
0.067906 0.927269 0.170288 -3.097832 -19.409725 2.319594 7.788317 0.163638 -10.655729 -8.360105 2.609920 14.758018 10.858579 22.033593 3.992356 0.000000 0.000000 0.000000 -10.165077 1.243460 -15.957189 13.364590 -1.249126 31.562222 -9.206321 -22.119014 3.232736 0.000000 0.000000 0.000000 0.758881 -0.016765 26.422322 -1.873878 0.793169 -25.872001 -3.299159 0.423801 28.346980 4.834376 -2.652004 -28.562749 0.000000 0.000000 0.000000 -13.105557 -14.800126 8.552262 -23.101981 -27.322594 -0.281170 10.033536 -52.737009 -1.436953 0.000000 0.000000 0.000000 25.413242 1.769106 -4.319986 46.681063 5.839884 -3.651653 21.317899 34.306275 6.873740 0.000000 0.000000 0.000000 
